<svg width="100%" height="100%" viewBox="0 0 25 25" fill="none" xmlns="http://www.w3.org/2000/svg">
<mask id="mask0_344_7" style="mask-type:alpha" maskUnits="userSpaceOnUse" x="0" y="0" width="25" height="25">
<rect x="0.59375" y="0.285156" width="24" height="24" fill="#D9D9D9"/>
</mask>
<g mask="url(#mask0_344_7)">
<path d="M12.5938 22.2852C11.2271 22.2852 9.93542 22.0227 8.71875 21.4977C7.50208 20.9727 6.43958 20.256 5.53125 19.3477C4.62292 18.4393 3.90625 17.3768 3.38125 16.1602C2.85625 14.9435 2.59375 13.6518 2.59375 12.2852C2.59375 10.9018 2.85625 9.60599 3.38125 8.39766C3.90625 7.18932 4.62292 6.13099 5.53125 5.22266C6.43958 4.31432 7.50208 3.59766 8.71875 3.07266C9.93542 2.54766 11.2271 2.28516 12.5938 2.28516C12.8771 2.28516 13.1146 2.38099 13.3063 2.57266C13.4979 2.76432 13.5938 3.00182 13.5938 3.28516C13.5938 3.56849 13.4979 3.80599 13.3063 3.99766C13.1146 4.18932 12.8771 4.28516 12.5938 4.28516C10.3771 4.28516 8.48958 5.06432 6.93125 6.62266C5.37292 8.18099 4.59375 10.0685 4.59375 12.2852C4.59375 14.5018 5.37292 16.3893 6.93125 17.9477C8.48958 19.506 10.3771 20.2852 12.5938 20.2852C14.8104 20.2852 16.6979 19.506 18.2563 17.9477C19.8146 16.3893 20.5938 14.5018 20.5938 12.2852C20.5938 12.0018 20.6896 11.7643 20.8813 11.5727C21.0729 11.381 21.3104 11.2852 21.5938 11.2852C21.8771 11.2852 22.1146 11.381 22.3062 11.5727C22.4979 11.7643 22.5938 12.0018 22.5938 12.2852C22.5938 13.6518 22.3312 14.9435 21.8062 16.1602C21.2812 17.3768 20.5646 18.4393 19.6562 19.3477C18.7479 20.256 17.6896 20.9727 16.4812 21.4977C15.2729 22.0227 13.9771 22.2852 12.5938 22.2852Z" fill="white"/>
</g>
</svg>
