<svg width="100%" height="100%" viewBox="0 0 91 432" fill="none" xmlns="http://www.w3.org/2000/svg">
<path d="M90.7501 230.067C90.9894 231.706 89.8544 233.229 88.2149 233.469L61.4981 237.369C59.8586 237.608 58.3355 236.473 58.0962 234.834C57.8569 233.194 58.9919 231.671 60.6314 231.432L84.3797 227.965L80.9129 204.217C80.6735 202.577 81.8086 201.054 83.4481 200.815C85.0875 200.575 86.6106 201.71 86.8499 203.35L90.7501 230.067ZM89.317 5.5773C87.8155 6.47177 86.3202 7.49678 84.8353 8.64824L81.1586 3.90672C82.8217 2.61709 84.5187 1.45183 86.2461 0.422699L89.317 5.5773ZM76.7877 16.245C74.4133 18.9017 72.104 21.87 69.8798 25.1187L64.929 21.7291C67.2829 18.2908 69.7498 15.1159 72.3141 12.2467L76.7877 16.245ZM63.9801 34.7601C62.2085 37.9895 60.5182 41.3997 58.9217 44.9678L53.4449 42.5172C55.1039 38.8096 56.8658 35.2536 58.7198 31.8742L63.9801 34.7601ZM54.634 55.5493C53.3475 59.0665 52.1501 62.6948 51.0508 66.416L45.2966 64.7162C46.431 60.8761 47.6681 57.1273 48.9991 53.4882L54.634 55.5493ZM48.1388 77.4844C47.2843 81.1708 46.5264 84.9238 45.8728 88.7278L39.9594 87.7118C40.6326 83.7942 41.4132 79.9282 42.2937 76.1295L48.1388 77.4844ZM44.2567 100.061C43.8277 103.838 43.5042 107.648 43.2929 111.476L37.302 111.145C37.5198 107.199 37.8532 103.274 38.295 99.3837L44.2567 100.061ZM43.0022 122.923C43.0205 126.735 43.1553 130.55 43.4132 134.354L37.427 134.76C37.1603 130.827 37.0211 126.886 37.0023 122.952L43.0022 122.923ZM44.5628 145.723C45.0745 149.501 45.7162 153.254 46.4942 156.967L40.6217 158.198C39.8132 154.338 39.1474 150.444 38.6171 146.528L44.5628 145.723ZM49.257 168.023C50.3238 171.673 51.5352 175.269 52.8978 178.796L47.3009 180.958C45.8752 177.267 44.6101 173.512 43.4979 169.706L49.257 168.023ZM57.4596 189.188C59.1365 192.575 60.9717 195.878 62.9717 199.085L57.8806 202.26C55.7736 198.882 53.8436 195.407 52.0828 191.851L57.4596 189.188ZM69.4418 208.364C71.7418 211.321 74.2088 214.172 76.8492 216.905L72.5346 221.074C69.7421 218.185 67.1348 215.171 64.7057 212.048L69.4418 208.364ZM85.1161 224.582C86.5595 225.784 88.0453 226.955 89.5742 228.095L85.9889 232.905C84.3734 231.702 82.8029 230.463 81.2768 229.193L85.1161 224.582Z" fill="url(#paint0_linear_2006_142)"/>
<path d="M77.9904 425.764C78.1209 427.415 76.8878 428.86 75.2361 428.991L48.32 431.118C46.6683 431.248 45.2235 430.015 45.093 428.364C44.9624 426.712 46.1956 425.267 47.8473 425.136L71.7727 423.246L69.8819 399.32C69.7513 397.669 70.9845 396.224 72.6362 396.093C74.2879 395.963 75.7327 397.196 75.8632 398.848L77.9904 425.764ZM77.1605 18.0813C75.8185 19.4744 74.4975 20.8839 73.1975 22.3091L68.7646 18.2657C70.1012 16.8004 71.4594 15.3512 72.8394 13.9186L77.1605 18.0813ZM65.6385 31.0567C63.1924 34.0448 60.8292 37.0933 58.5474 40.1981L53.7126 36.6451C56.0552 33.4573 58.4825 30.3263 60.9957 27.2561L65.6385 31.0567ZM51.9318 49.6989C49.8069 52.9208 47.7625 56.1955 45.7972 59.5193L40.6325 56.4655C42.6468 53.0588 44.7432 49.7007 46.923 46.3955L51.9318 49.6989ZM40.1396 69.6292C38.3338 73.0417 36.6055 76.4993 34.9533 79.998L29.5278 77.4359C31.2181 73.8565 32.9871 70.3174 34.8363 66.8229L40.1396 69.6292ZM30.233 90.591C28.7383 94.1514 27.3176 97.7487 25.9697 101.379L20.3449 99.2904C21.7215 95.583 23.1729 91.9077 24.7008 88.2684L30.233 90.591ZM22.1508 112.34C20.952 116.016 19.824 119.721 18.7655 123.45L12.9934 121.812C14.0727 118.009 15.2232 114.231 16.4465 110.48L22.1508 112.34ZM15.8028 134.687C14.8857 138.446 14.0361 142.225 13.2528 146.022L7.37653 144.81C8.1741 140.944 9.03936 137.094 9.97375 133.265L15.8028 134.687ZM11.1023 157.447C10.4511 161.267 9.86464 165.1 9.34148 168.943L3.39633 168.133C3.9284 164.225 4.52503 160.326 5.18764 156.438L11.1023 157.447ZM7.96096 180.492C7.56294 184.351 7.22699 188.216 6.95177 192.082L0.966917 191.656C1.24658 187.727 1.58801 183.799 1.99261 179.876L7.96096 180.492ZM6.30611 203.704C6.15055 207.586 6.05489 211.466 6.01774 215.34L0.0180147 215.283C0.0557437 211.348 0.152903 207.407 0.310919 203.463L6.30611 203.704ZM6.08121 226.977C6.16067 230.864 6.29812 234.741 6.49215 238.603L0.499707 238.904C0.302711 234.983 0.163147 231.046 0.0824636 227.1L6.08121 226.977ZM7.24927 250.228C7.56024 254.113 7.92795 257.98 8.35091 261.823L2.38691 262.479C1.95746 258.577 1.58412 254.651 1.2684 250.707L7.24927 250.228ZM9.79703 273.373C10.3393 277.233 10.9371 281.065 11.5891 284.865L5.6755 285.879C5.01326 282.02 4.40602 278.128 3.85536 274.208L9.79703 273.373ZM13.7314 296.289C14.5121 300.122 15.3482 303.916 16.2379 307.666L10.4 309.051C9.49537 305.238 8.64551 301.382 7.85212 297.486L13.7314 296.289ZM19.1117 318.947C20.1411 322.723 21.2259 326.447 22.3639 330.113L16.6335 331.892C15.4746 328.158 14.3704 324.367 13.323 320.525L19.1117 318.947ZM26.0092 341.146C27.3066 344.841 28.6597 348.468 30.0663 352.021L24.4875 354.229C23.0514 350.601 21.6709 346.901 20.348 343.134L26.0092 341.146ZM34.5588 362.709C36.1555 366.29 37.8088 369.782 39.5161 373.177L34.1556 375.873C32.4051 372.392 30.7121 368.816 29.0788 365.153L34.5588 362.709ZM44.9739 383.379C46.9171 386.792 48.9185 390.087 50.9748 393.254L45.9422 396.521C43.8197 393.252 41.7579 389.858 39.7597 386.348L44.9739 383.379ZM57.5678 402.72C59.9224 405.866 62.3366 408.851 64.806 411.665L60.2964 415.622C57.7186 412.685 55.2067 409.579 52.7643 406.316L57.5678 402.72ZM72.7416 419.932C74.1295 421.247 75.5316 422.51 76.9473 423.718L73.0521 428.282C71.5548 427.004 70.0754 425.672 68.6145 424.287L72.7416 419.932Z" fill="url(#paint1_linear_2006_142)"/>
<defs>
<linearGradient id="paint0_linear_2006_142" x1="68.6777" y1="3" x2="68.6777" y2="230.5" gradientUnits="userSpaceOnUse">
<stop stop-color="white" stop-opacity="0"/>
<stop offset="0.77" stop-color="white"/>
</linearGradient>
<linearGradient id="paint1_linear_2006_142" x1="42.148" y1="32.8493" x2="42.148" y2="442.339" gradientUnits="userSpaceOnUse">
<stop stop-color="white" stop-opacity="0"/>
<stop offset="0.77" stop-color="white"/>
</linearGradient>
</defs>
</svg>
