<svg width="100%" height="100%" viewBox="0 0 230 328" fill="none" xmlns="http://www.w3.org/2000/svg">
<path d="M0.763862 304.485C-0.340853 305.72 -0.235378 307.617 0.99943 308.721L21.1219 326.724C22.3567 327.829 24.2533 327.723 25.358 326.488C26.4627 325.253 26.3573 323.357 25.1224 322.252L7.23579 306.25L23.2379 288.363C24.3426 287.129 24.2371 285.232 23.0023 284.127C21.7675 283.023 19.8709 283.128 18.7662 284.363L0.763862 304.485ZM217.938 3.11157C218.636 4.86115 219.272 6.68737 219.844 8.58699L225.589 6.85533C224.969 4.79913 224.277 2.80835 223.511 0.888335L217.938 3.11157ZM222.415 20.1067C222.995 23.8549 223.385 27.7957 223.586 31.9086L229.579 31.6154C229.369 27.3128 228.96 23.1625 228.344 19.1888L222.415 20.1067ZM223.658 43.8741C223.526 47.7629 223.249 51.7657 222.829 55.8676L228.798 56.4781C229.231 52.2495 229.517 48.1107 229.654 44.0776L223.658 43.8741ZM221.249 67.8144C220.623 71.7031 219.881 75.66 219.025 79.6738L224.893 80.9252C225.769 76.8167 226.53 72.7605 227.173 68.7682L221.249 67.8144ZM216.236 91.4228C215.233 95.262 214.134 99.1401 212.939 103.048L218.676 104.803C219.895 100.818 221.017 96.8597 222.041 92.9384L216.236 91.4228ZM209.177 114.539C207.863 118.306 206.464 122.091 204.982 125.887L210.571 128.069C212.08 124.206 213.504 120.352 214.842 116.514L209.177 114.539ZM200.379 137.082C198.79 140.761 197.125 144.441 195.385 148.115L200.807 150.683C202.577 146.947 204.271 143.204 205.887 139.461L200.379 137.082ZM190.014 158.975C188.17 162.547 186.257 166.106 184.276 169.646L189.511 172.577C191.526 168.977 193.472 165.358 195.346 161.726L190.014 158.975ZM178.178 180.115C176.093 183.558 173.942 186.975 171.728 190.36L176.749 193.645C179.002 190.201 181.189 186.725 183.31 183.223L178.178 180.115ZM164.925 200.37C162.6 203.664 160.213 206.919 157.767 210.129L162.538 213.766C165.03 210.497 167.46 207.183 169.827 203.831L164.925 200.37ZM150.252 219.613C147.686 222.727 145.061 225.789 142.38 228.794L146.856 232.79C149.592 229.725 152.267 226.602 154.882 223.428L150.252 219.613ZM134.148 237.645C131.34 240.541 128.476 243.372 125.556 246.131L129.678 250.492C132.662 247.671 135.588 244.778 138.456 241.822L134.148 237.645ZM116.594 254.224C113.538 256.858 110.428 259.412 107.265 261.88L110.956 266.61C114.198 264.081 117.383 261.465 120.511 258.769L116.594 254.224ZM97.5728 269.053C94.2748 271.363 90.9245 273.579 87.5232 275.694L90.6918 280.789C94.1884 278.615 97.63 276.338 101.015 273.967L97.5728 269.053ZM77.1261 281.754C73.5991 283.673 70.0219 285.484 66.3962 287.179L68.9368 292.614C72.6763 290.866 76.3626 289 79.9944 287.024L77.1261 281.754ZM55.3546 291.916C51.627 293.374 47.8518 294.71 44.0306 295.915L45.8359 301.637C49.7882 300.39 53.6902 299.01 57.5405 297.504L55.3546 291.916ZM32.4716 299.127C28.5998 300.058 24.6837 300.855 20.7247 301.512L21.7073 307.431C25.8094 306.75 29.8655 305.924 33.8743 304.96L32.4716 299.127ZM8.8418 303.046C6.84913 303.23 4.8462 303.378 2.83313 303.49L3.16627 309.481C5.25253 309.365 7.32834 309.211 9.39351 309.021L8.8418 303.046Z" fill="url(#paint0_linear_139_149)"/>
<defs>
<linearGradient id="paint0_linear_139_149" x1="244.466" y1="18.9765" x2="26.7411" y2="323.462" gradientUnits="userSpaceOnUse">
<stop stop-color="white" stop-opacity="0"/>
<stop offset="0.77" stop-color="white"/>
</linearGradient>
</defs>
</svg>
