<svg width="100%" height="100%" viewBox="0 0 75 75" fill="none" xmlns="http://www.w3.org/2000/svg">
<path d="M37.5 75C36.5025 75 35.5517 74.813 34.6478 74.4389C33.7438 74.0648 32.9177 73.5349 32.1696 72.8491L2.15087 42.8304C1.46509 42.0823 0.935162 41.2562 0.561097 40.3522C0.187032 39.4483 0 38.4975 0 37.5C0 36.5025 0.187032 35.5362 0.561097 34.601C0.935162 33.6658 1.46509 32.8554 2.15087 32.1696L32.1696 2.15087C32.9177 1.40274 33.7438 0.857232 34.6478 0.514339C35.5517 0.171446 36.5025 0 37.5 0C38.4975 0 39.4638 0.171446 40.399 0.514339C41.3342 0.857232 42.1446 1.40274 42.8304 2.15087L72.8491 32.1696C73.5973 32.8554 74.1428 33.6658 74.4857 34.601C74.8286 35.5362 75 36.5025 75 37.5C75 38.4975 74.8286 39.4483 74.4857 40.3522C74.1428 41.2562 73.5973 42.0823 72.8491 42.8304L42.8304 72.8491C42.1446 73.5349 41.3342 74.0648 40.399 74.4389C39.4638 74.813 38.4975 75 37.5 75ZM33.7593 41.2406H41.2406V18.7968H33.7593V41.2406ZM37.5 52.4626C38.5598 52.4626 39.4483 52.1041 40.1652 51.3872C40.8822 50.6702 41.2406 49.7818 41.2406 48.7219C41.2406 47.6621 40.8822 46.7737 40.1652 46.0567C39.4483 45.3398 38.5598 44.9813 37.5 44.9813C36.4401 44.9813 35.5517 45.3398 34.8348 46.0567C34.1178 46.7737 33.7593 47.6621 33.7593 48.7219C33.7593 49.7818 34.1178 50.6702 34.8348 51.3872C35.5517 52.1041 36.4401 52.4626 37.5 52.4626Z" fill="white"/>
</svg>
