<svg width="100%" height="100%" viewBox="0 0 76 76" fill="white" xmlns="http://www.w3.org/2000/svg">
<path d="M51.3 47.55C48.425 47.55 45.9812 46.5729 43.9687 44.6188C41.9562 42.6646 40.95 40.2917 40.95 37.5C40.95 34.7083 41.9562 32.3354 43.9687 30.3813C45.9812 28.4271 48.425 27.45 51.3 27.45C54.175 27.45 56.6187 28.4271 58.6312 30.3813C60.6437 32.3354 61.65 34.7083 61.65 37.5C61.65 40.2917 60.6437 42.6646 58.6312 44.6188C56.6187 46.5729 54.175 47.55 51.3 47.55ZM30.6 71V61.285C30.6 60.1125 30.8875 59.0098 31.4625 57.9769C32.0375 56.944 32.8425 56.1204 33.8775 55.5063C35.7175 54.4454 37.6581 53.566 39.6994 52.8681C41.7406 52.1702 43.825 51.6538 45.9525 51.3188L51.3 57.6L56.6475 51.3188C58.775 51.6538 60.845 52.1702 62.8575 52.8681C64.87 53.566 66.7962 54.4454 68.6362 55.5063C69.6712 56.1204 70.4906 56.944 71.0944 57.9769C71.6981 59.0098 72 60.1125 72 61.285V71H30.6ZM23.7 61.285V64.3H9.9C8.0025 64.3 6.37813 63.644 5.02687 62.3319C3.67562 61.0198 3 59.4425 3 57.6V10.7C3 8.8575 3.67562 7.28021 5.02687 5.96813C6.37813 4.65604 8.0025 4 9.9 4H58.2C60.0975 4 61.7219 4.65604 63.0731 5.96813C64.4244 7.28021 65.1 8.8575 65.1 10.7V27.45C63.3175 25.2725 61.305 23.6115 59.0625 22.4669C56.82 21.3223 54.2325 20.75 51.3 20.75V17.4H16.8V24.1H40.95C39.8 24.9933 38.765 25.9983 37.845 27.115C36.925 28.2317 36.1487 29.46 35.5162 30.8H16.8V37.5H34.05C34.05 38.6725 34.1794 39.8171 34.4381 40.9338C34.6969 42.0504 35.0562 43.1392 35.5162 44.2H16.8V50.9H28.7025C27.15 52.1842 25.9281 53.7335 25.0369 55.5481C24.1456 57.3627 23.7 59.275 23.7 61.285Z"/>
</svg>
