<svg width="100%" height="100%" viewBox="0 0 76 76" fill="white" xmlns="http://www.w3.org/2000/svg">
<path d="M14.6667 71C12.8333 71 11.2639 70.3538 9.95833 69.0613C8.65278 67.7688 8 66.215 8 64.4V18.2C8 16.385 8.65278 14.8313 9.95833 13.5388C11.2639 12.2463 12.8333 11.6 14.6667 11.6H28.6667C29.4444 9.62 30.6667 8.025 32.3333 6.815C34 5.605 35.8889 5 38 5C40.1111 5 42 5.605 43.6667 6.815C45.3333 8.025 46.5556 9.62 47.3333 11.6H61.3333C63.1667 11.6 64.7361 12.2463 66.0417 13.5388C67.3472 14.8313 68 16.385 68 18.2V64.4C68 66.215 67.3472 67.7688 66.0417 69.0613C64.7361 70.3538 63.1667 71 61.3333 71H14.6667ZM38 15.725C38.7222 15.725 39.3194 15.4913 39.7917 15.0238C40.2639 14.5563 40.5 13.965 40.5 13.25C40.5 12.535 40.2639 11.9438 39.7917 11.4763C39.3194 11.0088 38.7222 10.775 38 10.775C37.2778 10.775 36.6806 11.0088 36.2083 11.4763C35.7361 11.9438 35.5 12.535 35.5 13.25C35.5 13.965 35.7361 14.5563 36.2083 15.0238C36.6806 15.4913 37.2778 15.725 38 15.725ZM38 44.6C41.2222 44.6 43.9722 43.4725 46.25 41.2175C48.5278 38.9625 49.6667 36.24 49.6667 33.05C49.6667 29.86 48.5278 27.1375 46.25 24.8825C43.9722 22.6275 41.2222 21.5 38 21.5C34.7778 21.5 32.0278 22.6275 29.75 24.8825C27.4722 27.1375 26.3333 29.86 26.3333 33.05C26.3333 36.24 27.4722 38.9625 29.75 41.2175C32.0278 43.4725 34.7778 44.6 38 44.6ZM14.6667 64.4H61.3333V60.605C58.3333 57.69 54.8472 55.3938 50.875 53.7163C46.9028 52.0388 42.6111 51.2 38 51.2C33.3889 51.2 29.0972 52.0388 25.125 53.7163C21.1528 55.3938 17.6667 57.69 14.6667 60.605V64.4Z"/>
</svg>
