<svg width="100%" height="100%" viewBox="0 0 76 76" fill="white" xmlns="http://www.w3.org/2000/svg">
<path d="M6.33333 13.8889V7H46.3333V13.8889H6.33333ZM21.3333 56.9444H31.3333V48.3333H39.6667V38H31.3333V29.3889H21.3333V38H13V48.3333H21.3333V56.9444ZM9.66667 69C7.83333 69 6.26389 68.3255 4.95833 66.9764C3.65278 65.6273 3 64.0056 3 62.1111V24.2222C3 22.3278 3.65278 20.706 4.95833 19.3569C6.26389 18.0079 7.83333 17.3333 9.66667 17.3333H43C44.8333 17.3333 46.4028 18.0079 47.7083 19.3569C49.0139 20.706 49.6667 22.3278 49.6667 24.2222V62.1111C49.6667 64.0056 49.0139 65.6273 47.7083 66.9764C46.4028 68.3255 44.8333 69 43 69H9.66667ZM59.6667 44.0278C57.7222 43.0519 56.125 41.4301 54.875 39.1625C53.625 36.8949 53 34.2111 53 31.1111C53 27.2074 53.9583 23.9352 55.875 21.2944C57.7917 18.6537 60.1667 17.3333 63 17.3333C65.8333 17.3333 68.2083 18.6537 70.125 21.2944C72.0417 23.9352 73 27.2074 73 31.1111C73 34.2111 72.375 36.8949 71.125 39.1625C69.875 41.4301 68.2778 43.0519 66.3333 44.0278V65.5556C66.3333 66.5315 66.0139 67.3495 65.375 68.0097C64.7361 68.6699 63.9444 69 63 69C62.0556 69 61.2639 68.6699 60.625 68.0097C59.9861 67.3495 59.6667 66.5315 59.6667 65.5556V44.0278Z"/>
</svg>
